<?xml version="1.0" encoding="UTF-8" ?>
<!DOCTYPE svg PUBLIC "-//W3C//DTD SVG 1.1//EN" "http://www.w3.org/Graphics/SVG/1.1/DTD/svg11.dtd">
<svg width="453pt" height="446pt" viewBox="0 0 453 446" version="1.1" xmlns="http://www.w3.org/2000/svg">
<g id="#99b8d5ff">
<path fill="#99b8d5" opacity="1.00" d=" M 0.00 0.00 L 0.73 0.00 C 0.54 0.18 0.18 0.54 0.00 0.73 L 0.00 0.00 Z" />
<path fill="#99b8d5" opacity="1.00" d=" M 4.27 99.24 C 4.32 67.52 2.83 33.06 5.01 3.03 C 4.50 35.09 5.98 67.27 4.27 99.24 Z" />
<path fill="#99b8d5" opacity="1.00" d=" M 338.03 125.01 C 376.11 161.50 408.62 203.43 444.96 241.04 C 413.53 274.06 379.42 305.94 348.04 339.04 C 381.18 373.73 416.89 407.31 450.04 442.07 C 417.39 441.84 384.74 442.17 352.10 441.92 C 317.35 408.04 286.21 370.41 252.67 335.24 C 251.32 334.08 251.92 331.23 253.73 330.71 C 281.85 302.80 309.70 274.62 337.85 246.75 C 338.23 206.18 337.85 165.59 338.03 125.01 Z" />
</g>
<g id="#074888ff">
<path fill="#074888" opacity="1.00" d=" M 5.01 3.03 C 127.33 2.98 249.65 2.97 371.97 3.03 C 371.57 35.05 372.90 67.73 371.33 99.34 C 326.02 100.93 279.77 99.47 234.10 100.06 C 198.48 133.94 164.43 169.90 129.05 204.16 C 128.85 169.45 129.19 134.72 128.91 100.02 C 87.72 99.46 43.67 101.03 4.27 99.24 C 5.98 67.27 4.50 35.09 5.01 3.03 Z" />
</g>
<g id="#f9e721ff">
<path fill="#f9e721" opacity="1.00" d=" M 239.25 120.16 L 240.07 119.96 C 239.87 227.30 240.11 334.64 239.95 441.97 C 202.98 442.01 166.00 442.03 129.03 441.97 C 128.99 371.67 128.96 301.37 129.04 231.08 C 165.05 193.57 202.72 157.31 239.25 120.16 Z" />
</g>
</svg>
